<svg version="1.0" xmlns="http://www.w3.org/2000/svg"
 width="500.000000pt" height="500.000000pt" viewBox="0 0 500.000000 500.000000"
 preserveAspectRatio="xMidYMid meet">

<g transform="translate(0.000000,500.000000) scale(0.100000,-0.100000)"
fill="#000000" stroke="none">
<path d="M2331 3659 c-69 -181 -239 -572 -260 -599 -16 -19 -43 -40 -61 -46
-28 -9 -12 -11 96 -11 121 0 126 1 80 12 -81 21 -84 45 -22 190 l42 100 130 3
129 3 25 -57 25 -56 17 29 c16 28 16 29 -79 233 -52 113 -99 209 -104 214 -5
5 -12 -1 -18 -15z m60 -195 c32 -69 59 -127 59 -130 0 -2 -52 -4 -116 -4 -89
0 -115 3 -111 13 35 89 102 247 105 247 2 0 30 -57 63 -126z"/>

<path d="M2502 3034 c-184 -261 -331 -478 -328 -481 3 -4 8 -4 10 -2 18 21
666 948 666 953 0 3 -3 6 -7 6 -5 0 -158 -214 -341 -476z"/>
<path d="M2905 3138 c60 -13 65 -25 65 -170 l0 -128 -214 0 c-196 0 -215 2
-218 17 -2 13 -9 8 -26 -20 -20 -34 -22 -52 -22 -162 0 -154 -6 -171 -62 -183
-35 -8 -19 -10 87 -10 81 0 116 3 93 7 -67 13 -68 17 -68 182 l0 149 215 0
215 0 0 -149 c0 -165 -1 -169 -68 -182 -23 -4 12 -7 93 -7 106 0 122 2 87 10
-32 7 -45 16 -53 34 -5 14 -9 144 -9 289 0 145 4 275 9 289 8 18 21 27 53 34
34 7 16 9 -87 9 -97 0 -120 -2 -90 -9z"/>
<path d="M897 1973 c-11 -10 -8 -153 3 -153 5 0 10 26 12 58 l3 57 24 -47 c14
-27 29 -48 33 -48 4 0 19 21 32 48 l25 47 1 -57 c0 -32 5 -58 10 -58 6 0 10
33 10 80 0 46 -4 80 -10 80 -5 0 -21 -22 -35 -50 -14 -27 -27 -50 -30 -50 -3
0 -16 23 -30 50 -25 48 -34 57 -48 43z"/>
<path d="M1190 1900 l0 -80 55 0 c65 0 74 17 13 22 -36 2 -44 7 -46 26 -3 20
1 22 37 22 23 0 41 5 41 10 0 6 -18 10 -40 10 -33 0 -40 3 -40 20 0 17 7 20
45 20 33 0 45 4 45 15 0 12 -13 15 -55 15 l-55 0 0 -80z"/>
<path d="M1428 1974 c-5 -4 -8 -40 -8 -81 l0 -73 40 0 c52 0 86 17 100 49 12
30 2 68 -22 89 -18 15 -100 27 -110 16z m100 -36 c33 -33 0 -98 -50 -98 -27 0
-28 1 -28 55 l0 55 33 0 c18 0 38 -5 45 -12z"/>
<path d="M1883 1968 c-6 -7 -23 -42 -38 -77 -26 -64 -25 -95 2 -53 11 15 25
22 48 22 23 0 37 -7 48 -22 27 -42 29 -11 2 53 -32 78 -47 96 -62 77z m32 -65
c5 -20 3 -23 -19 -23 -28 0 -32 10 -15 42 12 22 23 16 34 -19z"/>
<path d="M2080 1965 c0 -11 12 -15 46 -15 l46 0 -46 -54 c-25 -29 -46 -58 -46
-65 0 -7 23 -11 65 -11 76 0 88 18 16 22 l-50 3 49 59 c27 33 47 63 44 68 -3
4 -32 8 -65 8 -46 0 -59 -3 -59 -15z"/>
<path d="M2330 1900 c0 -47 4 -80 10 -80 6 0 10 33 10 80 0 47 -4 80 -10 80
-6 0 -10 -33 -10 -80z"/>
<path d="M2480 1966 c0 -10 13 -16 40 -18 l40 -3 -45 -55 c-25 -30 -45 -58
-45 -62 0 -5 29 -8 65 -8 37 0 65 4 65 10 0 6 -20 10 -45 10 -25 0 -45 3 -45
6 0 3 20 30 45 58 25 29 45 58 45 65 0 7 -22 11 -60 11 -46 0 -60 -3 -60 -14z"/>
<path d="M2870 1900 l0 -80 55 0 c65 0 74 17 13 22 -36 2 -44 7 -46 26 -3 20
1 22 37 22 23 0 41 5 41 10 0 6 -18 10 -40 10 -33 0 -40 3 -40 20 0 17 7 20
45 20 33 0 45 4 45 15 0 12 -13 15 -55 15 l-55 0 0 -80z"/>
<path d="M3110 1900 l0 -80 45 0 c25 0 45 5 45 10 0 6 -16 10 -35 10 l-35 0 0
70 c0 40 -4 70 -10 70 -6 0 -10 -33 -10 -80z"/>
<path d="M3316 1973 c-3 -3 -6 -39 -6 -80 0 -58 3 -73 15 -73 10 0 15 11 15
35 0 34 1 35 40 35 39 0 40 -1 40 -35 0 -25 4 -35 15 -35 13 0 15 13 13 75 -3
76 -20 107 -26 48 -3 -31 -6 -33 -43 -33 -37 0 -39 2 -39 29 0 30 -12 46 -24
34z"/>
<path d="M3587 1973 c-4 -3 -7 -39 -7 -80 l0 -73 55 0 c30 0 55 5 55 10 0 6
-18 10 -40 10 -36 0 -40 3 -40 25 0 22 4 25 35 25 19 0 35 5 35 10 0 6 -16 10
-35 10 -28 0 -35 4 -35 20 0 17 7 20 40 20 29 0 40 4 40 15 0 11 -12 15 -48
15 -27 0 -52 -3 -55 -7z"/>
<path d="M3820 1900 c0 -91 17 -110 22 -24 l3 56 40 -56 c55 -77 65 -74 65 24
0 91 -17 109 -22 23 l-3 -58 -44 58 c-24 31 -47 57 -52 57 -5 0 -9 -36 -9 -80z"/>
<path d="M4086 1973 c-3 -3 -6 -39 -6 -80 0 -58 3 -73 15 -73 12 0 15 15 15
74 0 69 -8 95 -24 79z"/>
</g>
</svg>
