<svg xmlns="http://www.w3.org/2000/svg" viewBox="0 0 2928.96 346.29"><defs><style>.cls-1{fill:#fff;}</style></defs><g id="Layer_2" data-name="Layer 2"><g id="Layer_1-2" data-name="Layer 1">
<path class="cls-1"
 d="M253.27,207.42l-3.07,1.76-.88-1.17v2.63l-.59-.58c-1,2.83-1.73,4.44-2.27,4.83a3.29,3.29,0,0,1-2,.59h-1.17v.58c0,1-.68,1.47-2.05,1.47l.59.59-.59.58-.59-.58v1.17a2.48,2.48,0,0,0-2,1c-.54.64-.81,1-.81,1.24v2.06l-2-.59.59,1.17-3.37,1.61-8.94,10.11-.58-.59c0,1.57-.69,2.45-2.06,2.64q-1.9,10.85-6,10.84l-7.18-1.32c-1.86-.29-3.17-.49-4-.58s-3-1.47-6.6-4.11a14.35,14.35,0,0,0-4.54,2.2,21.67,21.67,0,0,1-4.54-4.25h.59v-2l1.61-.73-1.61-2.64L193.8,232l-6-4.25-.58-2.78c1.56-.88,2.34-1.56,2.34-2.05q0-.15-5-8.06-4.69-4.24-6-6.88h.59l-.59-2.79,2.06-4.1v-2.78h.29a.26.26,0,0,0,.29-.29c0-.2-.68-2.1-2-5.72h.59L178,190.28a8.36,8.36,0,0,0,1.76-5.12q0-4.4-6-13.19L172,167.14q-.58-12.16-3.66-14.36-5.42,4.11-5.42,7.18l.29,1.17q0,2.49-3.8,2.49h-1.32a47.76,47.76,0,0,1-5.28,8.06l.59,2.64-2.78,2.19a10.45,10.45,0,0,1-1.18,4.18,12.87,12.87,0,0,1-2.34,3.29,23.21,23.21,0,0,0-3.37,5.42l-.58-.58v1.76l-1.47.88-1.17,2.63c-1.86,1-2.78,2-2.78,3.08a4.48,4.48,0,0,0,.58,1.76h-.58v1.17h-.88l-1.76,4.83L132,206.4l.88,3.37q-1.91,5.13-7.47,11.71v3.23q-1,9.66-2.93,12.3h-.58c.09,1.37-.86,3.05-2.86,5.06a41,41,0,0,1-4.76,4.24,8.54,8.54,0,0,1-5,1.25H108a1.69,1.69,0,0,0-1.17-.29q-.74,0-5.13,3.66l-1,1.9c-.29.59-.56.9-.8.95a5.89,5.89,0,0,1-1.1.08c-1.08,0-1.66-.1-1.76-.3l-3.37-4.83-4.24-.59-1.47-3.51a29.67,29.67,0,0,1,3.66-8.2L91,234.38c.78-.3,1.17-.69,1.17-1.18a1,1,0,0,0-.59-.88l1.17-4.54v-.88l-.87-1.17.58-1.61.88.88a4.35,4.35,0,0,1,3.37-4.1l1.46-2.78,1.18-.59q1.61-4,2.63-4.83l-.58-5.28a16.08,16.08,0,0,1,1.61-6.3h.88v-.73l-.88-.59,3.51-13.18,2.05-3.81v-5.42L105,175.2l-1.17-3.52a6,6,0,0,1-1.61-3.37l.73-5.42q0-6.15-2.78-6.88A8.52,8.52,0,0,1,97,157.62v.58l-2.19,2.64H91.55l-.58,2H89.36a32.59,32.59,0,0,0-4.25,7.54c-1.47,3.37-2.54,5.69-3.23,7A46,46,0,0,0,75,184v1.47c-2.74,0-4.54,1.61-5.42,4.83L69,189.4v1.47h-2a14.06,14.06,0,0,1-2.71,5.86c-1.31,1.66-2.71,3.32-4.17,5,0,1.07-.64,1.76-1.91,2-.39,2-1.75,3.76-4.1,5.42l-1.46,1.9c-.49.49-.93,2-1.32,4.4l-2.05,1.17v.88c-1.37.29-2,.88-2,1.76H45.85q0,3.36-1.47,3.66A16.27,16.27,0,0,0,38.89,228c-1.32,2-2,3.2-2,3.59v1.61q-3.36,4.4-3.37,11.43H33l.58,1.46-2.05,6c2.84-1.27,4.64-1.9,5.42-1.9,1.37,0,2.05.92,2.05,2.78l-1.46,1.17v.59l-1.76,3.66A32.05,32.05,0,0,0,28.86,265v.88l-1.61.59a97.61,97.61,0,0,1-4.4,9.66l-6.3,3.23-1.9-4.11a39.12,39.12,0,0,0-5-6.73,5.08,5.08,0,0,0,2.05-2.05,9.29,9.29,0,0,0-3.37-2.64h-2c-2.25,0-3.76-.27-4.54-.81S.49,261.13.29,259l.59-.58A2.65,2.65,0,0,1,0,256.49a1.18,1.18,0,0,1,.29-.87V253l.59.58v-2.05c2.24-.78,3.37-2.19,3.37-4.24A7.82,7.82,0,0,0,6.3,243.9l-1.17-2.05c3-1.18,4.54-3.18,4.54-6q4.1-2.49,4.1-9.23V225l2.2-1.46-1.61-2.06L16,219.29l-1.61-.59v-2l2.78-5.42H16v-1.17l-2.79-1.47v-2.78l3.37-12.3-1.17-3.23a29.53,29.53,0,0,0,1.17-3.66h.3a1.79,1.79,0,0,0,2-1.32,28.36,28.36,0,0,0,.52-5.42q.14-4.09.44-6.74L18,171.68l1.76-3.37v-4.1l.87-2.78a4.36,4.36,0,0,1-2.93-4.4l.3-2.2-3.66-3.51-8.65-.59-.58-5.42,4-1.61-.73,1.61,1.32-.58a3.55,3.55,0,0,1,2.63-3.67,6,6,0,0,1,5.35-4.61q4.32-.66,4.32-5.64h.88l2.64-7.47h1.17v-2h.59a15.72,15.72,0,0,1,6.29-8.64,29.83,29.83,0,0,1,9.09-4.84,12.73,12.73,0,0,0,9.23-6L56.1,105l-.88.59a73.16,73.16,0,0,0,15,2.19v.59a27.15,27.15,0,0,0-3.45,1.1,22.5,22.5,0,0,0-3.37,1.68,4.59,4.59,0,0,0-2.12,2.35l-1.17,3.22-3.37.58v4h.59c-.3,1.17-.69,1.86-1.18,2l-1.46,4.25q-3.37,3.81-3.37,6.88l.59,2.93c0,.69-.2,1-.59,1H49.8v.88h-.58l.58,2.63c-1.17.3-1.75,1.23-1.75,2.79l.29.88q0,1.9-3.37,5.71A2.33,2.33,0,0,1,42.33,154L39,157l1.62,3.22-1,5.42v4.25a11.45,11.45,0,0,1-2.64,1.17l-.58,3.52a4.87,4.87,0,0,1-2,3.95l.58,4.25L33,187.5l-2.64,19.63c.3,2,1.17,2.93,2.64,2.93a17.68,17.68,0,0,0,2.64-2.2c.87-.88,1.8-1.9,2.78-3.07s1.78-2.2,2.42-3.08A16.08,16.08,0,0,1,45,198.34l2.2-4.25H49.8a7.21,7.21,0,0,0,.88-3.22,5.76,5.76,0,0,0,1.76-4.25q5.87-1.32,7.62-6.59h.88a11.13,11.13,0,0,1,6-7.47,3.06,3.06,0,0,0,2.79-1.39,42.61,42.61,0,0,1,4.1-4.91v-2h.58V162.3q6.74-5.42,7.47-5.27v-1.61l.59-2h1.61a3.17,3.17,0,0,1-.73-1.47q0-1.76,2.78-4h3.81q.44-5.87,9.08-10.84l.59.59v-1.47l.59-1.76.87.59q1-4.4,2.13-4.91a4.55,4.55,0,0,1,1.83-.51,3.75,3.75,0,0,1,1.46.58q.3-3.8,2.49-3.8c.78,0,2,.58,3.52,1.75h1.17q5.28,0,6.3,5.42,6.45.3,8.35,3.81t1.9,5.13a4.84,4.84,0,0,1-2.05,3.95l-.73,2.06a8,8,0,0,0,1.91,4.83l.29,3.66h-.59a13.62,13.62,0,0,1-3.66,6.59l1.47,2-.59,5.42,1.17,2.64q0,4.83,2.78,4.83c1.47,0,2.35-.87,2.64-2.63l1.61-2.79q5.57-5.56,7.47-8.93l3.23-.59,2.19-4.83L150,157a5.76,5.76,0,0,0,3.37-4.54q3.36-.74,6.59-5.57t5.71-5l.88-.88c.88-2.14,1.47-3.27,1.76-3.36l.88.29c.39,0,.59-.29.59-.88l2.78-1.47q4.09,0,5.42-4.83,3.51-.44,4.69-2.05l1.61-.59,1.76.59a6.74,6.74,0,0,1,6.88,4.83l3.22-.58,4.25,6.3v3.22a116.58,116.58,0,0,1,4.25,15.09h1.17a18.42,18.42,0,0,1-2.64,8.64l2.05,2.64-2.05,4.83a36.61,36.61,0,0,1,1.47,9.38q0,4.68-1.47,6.29l.59,8.94h.88L203.47,202l-1.61.59v1.76a17.8,17.8,0,0,0,2.78,10.25q.87,14.94,5.71,14.94,1.6,0,8.35-8.06l3.66-.58,1.18-3.37,2.63-2.05-.58-.88,7.47-6.59,4.24-5.42h1.18l3.37-5.71a2.53,2.53,0,0,0,1.75.87c1.56,0,3.08-1.61,4.54-4.83h.59c.39,0,.59-.1.59-.29v-.3l6,6.3Z"/>

<path class="cls-1"
 d="M347.17,106.2h7.47l4.83,2.2q1.75,7.77,5.72,7.76c1,0,1.46-1,1.46-2.93,3-2.24,5.81-3.37,8.35-3.37a5.89,5.89,0,0,1,5.71,4.84l1.17,16.7-.87,3.37a39.74,39.74,0,0,0-1.47,7.17,22,22,0,0,1-1.39,6,18.09,18.09,0,0,1-1.39,2.78l-11.87,12.6,1.47,8.64-3.08,5.13-1.46,4.69-9.23,10.54-4.54,11.43q-4.11,4.55-11.72,7.18l-2.05,8.35-8.5,5.42-7.47,9.08L304.83,243.9l-3.95,1-15.24,12.31-4.24-4a35.63,35.63,0,0,1-7-6.52,8.62,8.62,0,0,1-2-4.9,2.82,2.82,0,0,1,.88-2.06l1.46-12.59-6.29-10.26a4.36,4.36,0,0,1-.88-2.34,6.66,6.66,0,0,1,1.75-4v-.58l2.5-2.35-2.79-7.32.88-15.23v-4l2.2-1.17a14,14,0,0,1-1.61-6.89,7.31,7.31,0,0,1,1.9-4.54h2.64l-2.35-2,1.76-3.22,3.08-7.91L282,150l1.32-4.1,4.4-6c.38-1.36.78-2.58,1.17-3.66v.29a6.15,6.15,0,0,1,1.1-3.81c.73-1,1.87-2.78,3.44-5.42l7.18-3.66.58-2q7.32-5.85,14.5-7.18l9.82-1.9,6.59-3.81,4.83.29Zm-9.08,26.22-.59,1.17c-1.76,0-3,0-3.81.08s-1.9.71-3.37,2l-4.25-1.75L310,142.82q-6,3.38-10.25,11.06t-4.25,12.67a10.85,10.85,0,0,0,1.32,5.42h.58a77.18,77.18,0,0,0,1.76,12.31L295.46,190l2.78,4.1-1.46,5.13a10.68,10.68,0,0,0,1.17,3.59,9.19,9.19,0,0,1,1.1,3.81q-.07,1.24,2.41,5.2l-.29,3.07q0,8.06,4,8.06c2.14,0,5-1.51,8.64-4.54a5.54,5.54,0,0,1,5.13-4.1l1.46-4.54c1.66-.2,2.49-1,2.49-2.35v-1c.49-.3,1-.59,1.61-.88a6,6,0,0,0,1-.59A46.55,46.55,0,0,1,332.37,192l1,.59-.44-1.17,4.54-5.13,5.71-18.9.88-1.76,1.91-.58.14-3.37v-2.64a39.19,39.19,0,0,1,2.2-5.42l-9.08-7.18,7-2.78-1-8.06,1.32-2.93-1.9.88Z"/>

<path class="cls-1"
 d="M484.13,1.61,486.33,0l3.22,2.2,2.78-.59,2.05,2.64,4.25-1.17q3.08,0,4.69,3.22l5.42,10.25q0,8.06-4.69,8.06h-1.61l-6.59,7.62.59,1.46L495,32.81q-1.47,3.22-6,3.52V37.5q-3.21-4.09-16.4-9.52l-1.91,1.46L469.78,28a27.25,27.25,0,0,0-4,7.47,3.15,3.15,0,0,0-1.46,2.34,4.55,4.55,0,0,0,.58,1.91,21.13,21.13,0,0,0-3.22,4.1v4.83a36.5,36.5,0,0,1-2.78,8.06h-.59a27.39,27.39,0,0,0-2.05,10.25c-1.17.39-1.76,1.52-1.76,3.37a5.12,5.12,0,0,0,.29,2,19.67,19.67,0,0,1-1.9,6h-.88a43.44,43.44,0,0,0-2.64,5.71l-.58-.88v1.47a47.61,47.61,0,0,0-4.25,11.42L442.82,105v6.88l.59,1.32a10.83,10.83,0,0,1-2.05,2.64l-.73-.59-1.47,3.23v6.29l-2.64,4.84v8.06l-1.17,5.42v6.29l-3.66,15.68-.59,10.84c-.78,0-1.17.29-1.17.88s.39.88,1.17,1.17l-.58,4.83a5.16,5.16,0,0,0,4.83,3.23l.59-2.06,5.42-7.47h.58V175.2a46.16,46.16,0,0,0,5.28-7.48q3.07-5.11,5.71-5.42l2.78-4.1,1.17.59a10.06,10.06,0,0,0,2.06-3.37l.58.59,1-3.23,1.17.59,1.17-2.93a5.32,5.32,0,0,1,1.9-2.34l3.81-3.37,8.65-4.25-.59-.59,12.89-9.08,6.3-3.22a12.08,12.08,0,0,1,3.95-2.2l4.84,2.78,4.69.59,1.61.88a3.35,3.35,0,0,1,1.17,1.76,12.14,12.14,0,0,1,.59,1.61v3.22l3.66,7.47-1,6.3,3.08,6,.58,7.61,2,9.52-4.68,5.42.58,2.64q8.05,4.55,8.06,12.89l-1.17,4.84,2.63,6.88-.58,6.89,1.17,9.37c-.39.49-.9,1.08-1.54,1.76l-1.1,1.17a29.1,29.1,0,0,0,6.89,4.54,11.5,11.5,0,0,1,3.37-3.22,23.18,23.18,0,0,0,4.69-4.25h2.78l.88-1.46,1.46-.59v-1.61l4-2.93a28.77,28.77,0,0,0,4.25-2.78l5-3.81a6.48,6.48,0,0,0,3.8-2.2,17.8,17.8,0,0,1,3.08-2.64l4.25-.29.58-2,7.77,2.34-.59,2.64.59,5.42q-4.54,3.38-5.42,7.62l-.59-.74-1.46,2.79L567,223.24l-.58,1.76a62.92,62.92,0,0,1-8.79,1.61v1.17c-3.23,1.57-5.52,2.35-6.89,2.35l-.88,4.54-3.07,1.76a11.19,11.19,0,0,1-7.77,3.07q-3.22,5.87-6.59,6l-4.25,4.69-5.27.73v1.17q-1.62,0-8.79,2.64l-.59,1.46-1.46-.58c-.59,2.24-2.88,3.36-6.89,3.36q-2.49,0-5.34-4.39T497,249.32v-1.18q-1.17-10-1.17-13.76l.29-1.47L495,229v-7.48l-3.81-5.42.59-4.83-1.61-17.14,3.07-10.69-6.3-7.47q-3.36-3.81-3.37-10.84H483a7.2,7.2,0,0,0,1.17-3.08q0-3.81-5.27-4.39l-4.25,2h-2.78l-.59,2.63-.59-.87q-.43,6.73-5.71,7.47v1q-4.4,2.64-4.39,5.28l.29,1.9a3.27,3.27,0,0,1-.29,1.46l-2.2.59L456.3,184l-2.05,1.47q-.3,4.55-5.42,8.06a10.25,10.25,0,0,1-4.84,6.88,25,25,0,0,1-6,9.67l-2.05,8.06,4.1,3.36-4.69,4.84h-1l-1.76,5.27v4.84l-1.47,2.19-1.17,3.23a7.7,7.7,0,0,1-2.05,2.49l-4.25,3.8-1.61-.87-1.17,3.66h-1.47c-1,2.14-2.78,3.22-5.42,3.22l-.58,4.83h-2.64L408,262.21l-4.1-.59a20.31,20.31,0,0,1-2.79,3.37L398.44,261a4.78,4.78,0,0,0,2.05-3.81,7.82,7.82,0,0,0-1.47-3.67,2,2,0,0,0,1.25-1.61q.23-1.17,1.39-5.86h-.59a8,8,0,0,0,1.18-4,11.11,11.11,0,0,0-.59-3.52h.88q.58-8.34,2.78-12.3a8,8,0,0,1-.88-3.08l.88-4.54v-2l2.05-6.59H408v-1.47l2.2-9.66.58.87-.58-4.68,1.17-3.08,2.63-1.76L411.33,186,414,175.93v-2.79a2.45,2.45,0,0,0,1.47-2l-.59-2.78v-.59h1.32l-.73-8.05v-2l.73-1.61h-.73l.73-5.28a18.54,18.54,0,0,0,2.42-5.93c.53-2.29.8-3.54.8-3.74v-3.95l2.64-3.52c1.27-.29,1.91-.92,1.91-1.9,0-1.47-.84-4-2.49-7.47l2.78-6.3V112.5l2-6,.59.74.87-5.42,1-3.08-.44-1.17q0-1.75,2.2-4.84h-.88a2.8,2.8,0,0,1,.88-2l-.88-.58c1.36-2,2.05-3.47,2.05-4.25V84.67h.88c.39-2.44,1-4,1.76-4.84l2.19-.58V75.73a35.21,35.21,0,0,0,1.18-7.91V63a7.88,7.88,0,0,1,.87-3.52l1.47-.58V53.17l1.61-4.54A10.76,10.76,0,0,0,444,41.46V39.7l2.64-7.47a4.45,4.45,0,0,1,1.61-3.37h.59l3.22-9.67a37.41,37.41,0,0,1,4.25-5.86q7.9-1,10.84-9.08a5,5,0,0,0,4.1-2L476.66,1l4.25.58L483.54,0Z"/>

<path class="cls-1"
 d="M694.78,97.56q1-.3,5.71.29c3.12.39,5.13,1.08,6,2.05l5-1.17,2.79.29,2,4-.29,2.93a11.88,11.88,0,0,0-4,5.13H710.6L709,112.79q-.74.73-6.15,2.49l-.29,27.25,2.34,14.06.3,14.5,2.19,17.73L716.6,214a26.56,26.56,0,0,1,3.37,4.4q7.32-4.09,9.23-4.1,6-6.88,7.76-7.18v-1.61l16.56-14.06.29-2.64q1.61-.3,6.3-5.71l5.42,1.17,2.93,6.59-1.17,5.71-2.93-1.17-1.47,3.22h-2.78a17,17,0,0,1-4.84,7.18v1.61l-8,7.47-1.47,3.81a82.07,82.07,0,0,1-9.37,5.13l-1.17,2.2-.3-.74-1.76,3.08-3.95,1.17-.59,2.05h-2.05l.88,2.2-2.34,4.54-2.2.59q.29,2.34-4.83,8.64l-6.89.29-1.46,4.25-4.25,1.17a13.05,13.05,0,0,1-7.76-6l-9.82-16-9.37-21,.87-7.76-2-6.89,1.47-.29q-4.26-8.49-4.25-12.89l.73-5.42-4.54-2.78-3.07,1.9v-.73l-1.47.73-4,10.11-2-.88-.59,2.05-1.47-.59v1.32h-.58q-.15.89-4.25,7.47l-1.17-.58-.88,6.3L648.19,203a7.84,7.84,0,0,0-4,3.81l-1.17,2.93,1.31,1.75L641,212.7l-1.47,6L637.06,220l.73,1.17a27.53,27.53,0,0,1-5.71,3.52l-1.32,2.19-1.17-1.61-2.05,5.13h-1.76l-2.49,8.5-2.64.87-.29,4.4h-4.25l-4.24,9.67-2.06,1.46h-1.75l-.59,2.79-9.37,3.51-9.82.29L584,234.08l1.76-3.66.44-2.93q.15-1.17,3.52-8.79l-.59-2a52.91,52.91,0,0,1,3.52-7.18l-1.18-.58,2.79-7.18.14-2.78a25.59,25.59,0,0,1,2.2-5.42q-1.17-7-2.34-8.06l1.17-2,3.81.58q3.36-4.53,4.25-4.83l.87-2.64H605l-2.05-3.07,1.76-7.77,1.17.59q1.75-4.55,2.2-4.54l-.59-3.81,4.1-7.62v-2l-.88-1.76,6-12.89,6.88-9.37a33.25,33.25,0,0,0,6-6.89l5.13-2,6.88-7.17,6.59-4h4l3.22-.88h4.54L662,99.9l4.25.3h4.25V99a8.54,8.54,0,0,1,3.81,1.47l4.54-1.76,3.37.88.88-1.17,3.51,1.17ZM657,120.7l-3.66.59-4.54-.29-1.47,2.63v2.2a35.71,35.71,0,0,1-5.12,2l-2.64,6.59q-2.06,8.79-2.49,8.94H635.6l-2.06,4.83-1,4.1a4.73,4.73,0,0,1-2.93,3.08l-1.46,5.13-2.35,4.39a11.1,11.1,0,0,0-1.32,5.27v1.18L623,170.21v2.35h-.88l.29,1.46-1.17,2.49-1.76,7.77-3.07,6.3-.59,8.93-.88,1.32h-.58l-.59,2.64,1.17,1.17-1.46,5.42h-.59l.59,1.76h-2.2l.29,10.84,1.32,5.12h.59l3.22-3.07,8.5-12,15.23-20.07,4.54-4.84,10.11-16.4,10.55-14.07.87-3.07-2-2.64,3.81-6.59.88-5a16.56,16.56,0,0,1,2.49-3.81l.29-11.72-3.95-.29h-3.22l-4.25-2.93-.88,1.46Z"/>

<path class="cls-1"
 d="M1022.31,207.42l-3.07,1.76-.88-1.17v2.63l-.59-.58q-1.46,4.24-2.27,4.83a3.26,3.26,0,0,1-2,.59h-1.18v.58c0,1-.68,1.47-2.05,1.47l.59.59-.59.58-.58-.58v1.17a2.49,2.49,0,0,0-2,1c-.54.64-.81,1-.81,1.24v2.06l-2-.59.59,1.17-3.37,1.61-8.94,10.11-.58-.59c0,1.57-.69,2.45-2.05,2.64q-1.9,10.85-6,10.84l-7.18-1.32c-1.85-.29-3.17-.49-4-.58s-3-1.47-6.59-4.11a14.15,14.15,0,0,0-4.54,2.2,21.68,21.68,0,0,1-4.55-4.25h.59v-2l1.61-.73-1.61-2.64,4.54-3.22-6-4.25-.59-2.78c1.56-.88,2.34-1.56,2.34-2.05q0-.15-5-8.06-4.68-4.24-6-6.88h.58l-.58-2.79,2-4.1v-2.78H950a.25.25,0,0,0,.29-.29c0-.2-.68-2.1-2-5.72h.59L947,190.28a8.36,8.36,0,0,0,1.76-5.12q0-4.4-6-13.19L941,167.14q-.6-12.16-3.67-14.36-5.42,4.11-5.42,7.18l.3,1.17q0,2.49-3.81,2.49H927.1a47.71,47.71,0,0,1-5.27,8.06l.58,2.64-2.78,2.19a10.6,10.6,0,0,1-1.17,4.18,13.14,13.14,0,0,1-2.35,3.29,23.21,23.21,0,0,0-3.37,5.42l-.58-.58v1.76l-1.47.88-1.17,2.63c-1.85,1-2.78,2-2.78,3.08a4.48,4.48,0,0,0,.58,1.76h-.58v1.17h-.88l-1.76,4.83L901,206.4l.87,3.37q-1.9,5.13-7.47,11.71v3.23q-1,9.66-2.93,12.3h-.58c.09,1.37-.86,3.05-2.86,5.06a41,41,0,0,1-4.76,4.24,8.52,8.52,0,0,1-5,1.25H877a1.67,1.67,0,0,0-1.17-.29q-.74,0-5.13,3.66l-1,1.9c-.3.59-.57.9-.81.95a5.81,5.81,0,0,1-1.1.08c-1.07,0-1.66-.1-1.75-.3l-3.37-4.83-4.25-.59-1.47-3.51a30,30,0,0,1,3.67-8.2l-.59-2.05c.78-.3,1.17-.69,1.17-1.18a1,1,0,0,0-.58-.88l1.17-4.54v-.88l-.88-1.17.58-1.61.88.88a4.37,4.37,0,0,1,3.37-4.1l1.47-2.78,1.17-.59q1.6-4,2.64-4.83l-.59-5.28a16.26,16.26,0,0,1,1.61-6.3h.88v-.73l-.88-.59,3.52-13.18,2.05-3.81v-5.42l-3.52-2.19-1.17-3.52a6,6,0,0,1-1.61-3.37l.73-5.42q0-6.15-2.78-6.88a8.49,8.49,0,0,1-3.22,1.61v.58l-2.2,2.64H860.6l-.59,2H858.4a33,33,0,0,0-4.25,7.54c-1.46,3.37-2.54,5.69-3.22,7A45.6,45.6,0,0,0,844,184v1.47q-4.1,0-5.42,4.83l-.58-.88v1.47h-2a14.19,14.19,0,0,1-2.71,5.86q-2,2.49-4.18,5c0,1.07-.64,1.76-1.9,2q-.59,2.93-4.1,5.42l-1.47,1.9c-.49.49-.93,2-1.32,4.4l-2,1.17v.88c-1.37.29-2,.88-2,1.76h-1.32c0,2.24-.49,3.46-1.46,3.66a16.21,16.21,0,0,0-5.5,5.05c-1.31,2-2,3.2-2,3.59v1.61q-3.37,4.4-3.37,11.43H802l.59,1.46-2.05,6c2.83-1.27,4.63-1.9,5.42-1.9,1.36,0,2,.92,2,2.78l-1.47,1.17v.59l-1.75,3.66A31.91,31.91,0,0,0,797.9,265v.88l-1.61.59a95.34,95.34,0,0,1-4.4,9.66l-6.29,3.23-1.91-4.11a38.56,38.56,0,0,0-5-6.73,5.08,5.08,0,0,0,2-2.05,9.29,9.29,0,0,0-3.37-2.64h-2c-2.25,0-3.76-.27-4.54-.81s-1.27-1.88-1.46-4l.58-.58a2.69,2.69,0,0,1-.88-1.91,1.15,1.15,0,0,1,.3-.87V253l.58.58v-2.05q3.38-1.17,3.37-4.24a7.72,7.72,0,0,0,2.05-3.37l-1.17-2.05q4.55-1.77,4.54-6,4.1-2.49,4.1-9.23V225l2.2-1.46-1.61-2.06,1.61-2.19-1.61-.59v-2l2.78-5.42H785v-1.17l-2.78-1.47v-2.78l3.37-12.3-1.18-3.23a30.44,30.44,0,0,0,1.18-3.66h.29a1.81,1.81,0,0,0,2-1.32,29.54,29.54,0,0,0,.51-5.42q.14-4.09.44-6.74l-1.76-1.46,1.76-3.37v-4.1l.88-2.78a4.34,4.34,0,0,1-2.93-4.4l.29-2.2-3.66-3.51-8.64-.59-.59-5.42,4-1.61-.74,1.61,1.32-.58a3.55,3.55,0,0,1,2.64-3.67,5.94,5.94,0,0,1,5.34-4.61c2.88-.44,4.33-2.32,4.33-5.64h.87l2.64-7.47h1.17v-2h.59a15.74,15.74,0,0,1,6.3-8.64,29.79,29.79,0,0,1,9.08-4.84,12.73,12.73,0,0,0,9.23-6l4.25,3.22-.88.59a73,73,0,0,0,14.94,2.19v.59a27.53,27.53,0,0,0-3.44,1.1,21.59,21.59,0,0,0-3.37,1.68,4.61,4.61,0,0,0-2.13,2.35l-1.17,3.22-3.37.58v4h.59c-.29,1.17-.69,1.86-1.17,2l-1.47,4.25q-3.37,3.81-3.37,6.88l.59,2.93c0,.69-.2,1-.59,1h-1.46v.88h-.59l.59,2.63c-1.17.3-1.76,1.23-1.76,2.79l.29.88q0,1.9-3.37,5.71a2.33,2.33,0,0,1-2.63,2.64L808,157l1.61,3.22-1,5.42v4.25a11.34,11.34,0,0,1-2.63,1.17l-.59,3.52a4.84,4.84,0,0,1-2,3.95l.59,4.25L802,187.5l-2.63,19.63c.29,2,1.17,2.93,2.63,2.93a17.68,17.68,0,0,0,2.64-2.2c.88-.88,1.8-1.9,2.78-3.07s1.78-2.2,2.42-3.08a16.08,16.08,0,0,1,4.17-3.37l2.2-4.25h2.64a7.35,7.35,0,0,0,.88-3.22,5.79,5.79,0,0,0,1.75-4.25q5.87-1.32,7.62-6.59H830a11.14,11.14,0,0,1,6-7.47,3.05,3.05,0,0,0,2.78-1.39,43.74,43.74,0,0,1,4.1-4.91v-2h.59V162.3q6.74-5.42,7.47-5.27v-1.61l.58-2h1.62a3.12,3.12,0,0,1-.74-1.47q0-1.76,2.79-4H859q.45-5.87,9.09-10.84l.58.59v-1.47l.59-1.76.88.59q1-4.4,2.12-4.91a4.55,4.55,0,0,1,1.83-.51,3.78,3.78,0,0,1,1.47.58q.29-3.8,2.49-3.8c.78,0,2,.58,3.51,1.75h1.17q5.28,0,6.3,5.42,6.45.3,8.35,3.81t1.91,5.13a4.87,4.87,0,0,1-2,3.95l-.74,2.06a8,8,0,0,0,1.91,4.83l.29,3.66h-.58a13.73,13.73,0,0,1-3.67,6.59l1.47,2-.59,5.42,1.17,2.64q0,4.83,2.79,4.83c1.46,0,2.34-.87,2.63-2.63l1.62-2.79q5.57-5.56,7.47-8.93l3.22-.59,2.2-4.83L919,157a5.74,5.74,0,0,0,3.37-4.54q3.38-.74,6.59-5.57c2.15-3.22,4-4.88,5.72-5l.88-.88c.87-2.14,1.46-3.27,1.75-3.36l.88.29c.39,0,.59-.29.59-.88l2.78-1.47q4.1,0,5.42-4.83,3.53-.44,4.69-2.05l1.61-.59,1.76.59a6.73,6.73,0,0,1,6.88,4.83l3.23-.58,4.24,6.3v3.22a115,115,0,0,1,4.25,15.09h1.17a18.3,18.3,0,0,1-2.63,8.64l2,2.64-2,4.83a37,37,0,0,1,1.46,9.38q0,4.68-1.46,6.29l.58,8.94h.88L972.51,202l-1.61.59v1.76a17.88,17.88,0,0,0,2.78,10.25q.89,14.94,5.71,14.94,1.62,0,8.35-8.06l3.67-.58,1.17-3.37,2.63-2.05-.58-.88,7.47-6.59,4.25-5.42h1.17l3.37-5.71a2.53,2.53,0,0,0,1.76.87q2.34,0,4.54-4.83h.58c.39,0,.59-.1.59-.29v-.3l6,6.3Z"/>

<path class="cls-1" 
d="M1100.24,107.81l3.67.59h.58l-.58,1.46h1.17l2.05,2,6.88.59h6.89l3.95,2.2h1.47l2.2,7.47-3.08,2.63v2.79l4.83,4.83-.58,13.48h-2l-.74,2.64h-.58v4.24l2.78.59,1.17,1.46-1.75,2.79v2l-3.67,1.76-2.63,2.19-7.62,4.1a42.49,42.49,0,0,1-5.27,4.84l-2.2,6-12.89,5.13-12.89-.29.58,3.22h-2.63l-.59.88-6.3,1.32-.58-2.2-2.2.88v1.32l-5.42,2.05-2,6,2.78,7.47V208l1.47,3.22q-2.94,8.64-4.25,9.08L1063,223l-1.47.59,3.37,1.46v4.54l2.93,2.05q7.32-2.19,8.94-3.22l2.19,2,.59-.59a67.82,67.82,0,0,0,9.52-1.46l1-1.76h3.51l2.79-.29,3.51,1.76-.88-1.18H1102l3.66-3.07,4.25-.29H1109l4.1-1.76,1.18.88,2.19-2h2.93l2.79-2.79q3.21-.13,10.4-3.81V212.4l4.25-1.17,4.54-6.59,4.83.58a10.29,10.29,0,0,0,5.86,2.79l2.2,2.05-3.37,6.3.58,3.95-4.68,2.64-.59,1.46-7,.88-3.81,4-4.25.29-1.17,3.37-5.71-.59-1.76,4.11-4.54-.59-1.76,2q-5,1.91-5.13,2.2l-2-1.17-3.37,3.22h-4.83l-2.93,1.46h-1.76l-2.19,1.91a34.46,34.46,0,0,0-7.77,3.22l-2-1.46h-4.25l-1.75,1.46-1.62-.59-2,.59-.58-.59-1.47,3.37h-4l-3.23,1.76c-1.07.59-3.42,1.07-7,1.47l-1.46,1.46h-2.64l-3.95.59-2.93,3.66-4-1.47-2,2.64-1.61-.44q-.58-.15-5.86-5.56l.59-3.52-.59-1.9.59-3.52-2.2-5.42L1033,237l-1.47-6.59L1033,225l-2-8.35-.59-.59.59-4.24,4.83-1.76v-2.93l-2-.73.59-3.81-1.32-2.2.73-3.51,2-1.18-.58-3.37.58-5.71L1037,186l2-6.89,4.84-8.64,4.25-1.61.58-4.69-.58-1.32.58-2.64,2.64-1.46,1.61-4.83h-3.66V152.2l1.46-2.2-.58-2.05.58-2h.59v-4.84l4.83-.58,2-4.25,10.26-11.43h2a15.93,15.93,0,0,1,4.54-4.68l2,.58c1.37-.48,3-2.1,4.83-4.83h1.47l2.78-1.76h1.17l2.05-3.07Zm-3.51,24.9-5.13,1.76-3.95-1.76a36.44,36.44,0,0,1-5.72,4.11,10.71,10.71,0,0,1-3,6.44q-2.57,2.64-3.59,2.64h-2.63l1.75,3.22q-1.61,2.94-4.25,9.08l-2.34-.58-.88,3.81.88,5.42,2.93,1.61q1.32.73,7.33,1.75l4.68-3.07,9.67-.88,5.13-7.47,6.88-5.71.88-10.84-2.34-3.52-.3-5.13h-3.36Z"/>

<path class="cls-1" 
d="M1297.41,20.8l4.25.59.59,2.05,2,.58-.59,6v2.2l-2,2.05-.44,4.68a12.1,12.1,0,0,1-2.93,7l1.91,1.17-3.37,1.46V52l-3.23,3.22v5.42l-1-.58-1.76,3.66-.73,6a12,12,0,0,1-2.2,4.1l.88,3.37-1.32,3.66a9.52,9.52,0,0,1-1.9,3.37l-3.08,3.07v5.42l1.47.59-1.47,8.5.88,1.75-3.66,6.3v5.42l-2.64,2.64v6.88l-3.37,4.84v2.78l1.32,1.17-.73,4.11,1.61,2.19a11.16,11.16,0,0,1-6.3,6L1269,150l2,1.32L1266.8,154l.58,3.07-.58,3.81q7.76-.59,9.08-1.17l2.64,1.17-12.31,15.09-4.1,16.4-2.78,1.76.58,4.84-1.17,1.46.59,2.2-.59,1.17v6.3l.59,3.95h-1.18l-.87,3.52-2.2,1.76h-1.17v7.61l2.78,1.47-3.37,4.83h1.17l-.58,2.64,2.19,2.78v2.64l2.05,2.05-.87,4.83,1.46,2.79v10.69l-2,.59,2,4.83v4.25l2.64,10.11,8.79,18.89h-.59l4.69,4.25q4.24,6.88,7,10.84,4.53,2.49,5.27,4.25h1.32v1.46l2.93,1.76h1.76l2.78,2a11.64,11.64,0,0,0,8.35-6.59q3.07-.44,7.47-4.1l2.78,4.69-2.19.73v2.64l-2.64,1.46.59,3.37v2.64l2-.59V334l-4.1,2.06.87,1.17-2,.58-1,1.61,1,1.18h-2.19l.58,1.46a27.88,27.88,0,0,0-8.64,4.25q-1.47-.74-6.88-6.89l-6,2.06-3.08-3.67-1.17-2.63-.88-.74a4,4,0,0,1-1.1-1.53c-.34-.74-.75-1.59-1.24-2.57v-2.63l-2.2-3.37v-1.47l-2.64-1.76-14.94-18.6L1247,286.23l.88-2.05-3.52-5.42,2.64-1.47-1.17-2.78L1245,267l-1.17-2.64-1.61-6-2.64-4a13.2,13.2,0,0,1-1-4.54l-1-8.05v-6h-.73l1.61-6.3-.88-3.22-4-.59,1.18-2.78,1.46,1.17-2-8.64-2.64,3.22,2.64-8.64h-2.05v.58l-2.2-.58-6.59,6.59-.58-.59-4.11,2.06v2.78l-3.37,2.64V225h-2l-2.49,1.9q-1.17.89-5.12,1.47l.73,3.22-3.37,2.2c-1,3.91-2.2,6.59-3.66,8.06v2.05l-2.64,2.19v3.23l-2.64-.59-4,8.06-5.71,2.19-1.18,2.64-2.78.59v1l-4.1,1.76h-.59c-1-3.32-2.1-5.52-3.37-6.59v1.17c-2.14-2.93-3.76-4.74-4.83-5.42l-.88-7.47.88-3.37v-2.05a9.16,9.16,0,0,0-2-3.37l1.17-2v-2.05l.88-4.25-2.64-2.64,2.64-1.9a20.26,20.26,0,0,1-2-8.94V214l.59-3.37-1.18-3.51,2.64-4.54-1.46-9.08h1.46l1.32-4.69v-2.2h1.46V173.14l2-1.46.59-6.59V162.3h4.83l1.18-7.47,4.83,1.18,3.37-8.65v-2.63l.88,1.17a68.51,68.51,0,0,0,4.69-11.43l1.9-1.46v-2.2l.88,2.2.58-4.25,2.64-.59,1.61-3.37v-1.46l2-.59q.89-2,8.06-8l.59,1.17,2.19-2.64,2.64.88,1.17-.88v-1.32l1.61.59,2.05-6,6.6,1.91-.59-.59h4.25l-1-.58,2.2-.74,7.18,1,8.64,5H1245l5.71,1.61v1.17l3.81,4.25q1.76,6.3,2.79,6.59l2-.73,1.46-4.1,2.78-1.17v-6.89l.59-2.19,2-.59-.58-4.83,1.17-2.06,3.37-1.75L1269,99l.59-.88L1266.8,97V69.73l2.19-2.2a12.2,12.2,0,0,1,1.18-3.81l-.59-1V54.64l-3.37,2-2.64-.59c-.39.4-1.61.83-3.66,1.32l-.58,2.64-4.25,2h-1.76l-3.52-2.64-1.9-5.42-1.46-.88,1.46-1.75-1.46-4.25,1.46-2.05,2.78-.59.59-2.2,2.64-.58,2.78-4.84h1.46l.59-1.46,10.84-8.06.59-1.17H1275V24.61l1.46,1.61h2.06l.58-2.2a10.19,10.19,0,0,0,4.84-2.05Zm-73.53,111.62-1.17,3.81-9.53,4.83-4.24,8.94-2.06,1.32h-.58l-1.32,2.05-.88-.59-1.17,3.23,1.17,1.61q-1.17,7.32-2.64,8.64v2.64q-2.49,1.9-4,7H1196v3.22l-2,6.3,1.47,3.37q-2.94,8.2-4.83,11l1.17,1.91v5.42l1.61,1.46-2.2,3.23.59,4.24,2.78,3.23v-1.17l2.05,1.17,4.25-1.76,1.17.59,7.47-8.94,2-.59V208l4.25-4.25,4.83-2,3.23-4,2.19-.87,6.89-6,9.23-6.89,1.9-5.71c.2-.58,1.47-2.1,3.81-4.54a21.68,21.68,0,0,1,3.37-8.64l-4.25-4.84-.58-10.84-.59-3.51v-1.17a11.18,11.18,0,0,1-2-4.25h-2.2l-.58,3.22-3.52-.58v-3.23l-1.32.59-.58-2-4.11,1.46-4.24-1.46-.59-3.37Z"/>

<path class="cls-1" d="M1492.53,97.56c.68-.2,2.59-.1,5.71.29s5.13,1.08,6,2.05l5-1.17L1512,99l2,4-.29,2.93a12,12,0,0,0-4,5.13h-1.46l-1.61,1.75q-.73.73-6.15,2.49l-.3,27.25,2.35,14.06.29,14.5,2.2,17.73,9.23,25.19a26.37,26.37,0,0,1,3.36,4.4q7.33-4.09,9.23-4.1c4-4.59,6.59-7,7.77-7.18v-1.61l16.55-14.06.29-2.64c1.08-.2,3.17-2.1,6.3-5.71l5.42,1.17,2.93,6.59-1.17,5.71-2.93-1.17-1.47,3.22h-2.78a17,17,0,0,1-4.83,7.18v1.61l-8.06,7.47-1.46,3.81a82.43,82.43,0,0,1-9.38,5.13L1533,226l-.29-.74-1.76,3.08-4,1.17-.58,2.05h-2l.88,2.2-2.35,4.54-2.2.59q.3,2.34-4.83,8.64l-6.88.29-1.47,4.25-4.25,1.17a13.05,13.05,0,0,1-7.76-6l-9.82-16-9.37-21,.88-7.76-2.05-6.89,1.46-.29q-4.24-8.49-4.25-12.89l.74-5.42-4.54-2.78-3.08,1.9v-.73l-1.47.73-4,10.11-2-.88-.59,2.05-1.46-.59v1.32h-.59c-.1.59-1.51,3.08-4.25,7.47l-1.17-.58-.88,6.3L1446,203a7.9,7.9,0,0,0-4,3.81l-1.17,2.93,1.32,1.75-3.37,1.18-1.47,6-2.49,1.32.74,1.17a27.55,27.55,0,0,1-5.72,3.52l-1.31,2.19-1.18-1.61-2,5.13h-1.75l-2.5,8.5-2.63.87-.29,4.4h-4.25l-4.25,9.67-2,1.46h-1.76l-.59,2.79-9.37,3.51-9.81.29-4.25-27.83,1.75-3.66.44-2.93q.15-1.17,3.52-8.79l-.59-2a52.91,52.91,0,0,1,3.52-7.18l-1.17-.58,2.78-7.18.15-2.78a25.32,25.32,0,0,1,2.19-5.42q-1.17-7-2.34-8.06l1.17-2,3.81.58c2.25-3,3.66-4.63,4.25-4.83l.88-2.64h.58l-2-3.07,1.76-7.77,1.17.59q1.77-4.55,2.2-4.54l-.59-3.81,4.11-7.62v-2l-.88-1.76,6-12.89,6.89-9.37a33.49,33.49,0,0,0,6-6.89l5.13-2,6.89-7.17,6.59-4h4l3.23-.88h4.54l2-3.37,4.24.3h4.25V99a8.54,8.54,0,0,1,3.81,1.47l4.54-1.76,3.37.88.88-1.17,3.52,1.17Zm-37.79,23.14-3.67.59-4.54-.29-1.46,2.63v2.2a36.32,36.32,0,0,1-5.13,2l-2.64,6.59q-2,8.79-2.49,8.94h-1.46l-2,4.83-1,4.1a4.73,4.73,0,0,1-2.93,3.08l-1.46,5.13-2.34,4.39a11.1,11.1,0,0,0-1.32,5.27v1.18l-1.47-1.18v2.35h-.88l.3,1.46-1.18,2.49-1.75,7.77-3.08,6.3-.59,8.93-.87,1.32h-.59l-.59,2.64,1.18,1.17-1.47,5.42h-.59l.59,1.76H1409l.3,10.84,1.31,5.12h.59l3.22-3.07,8.5-12,15.23-20.07,4.54-4.84,10.11-16.4,10.55-14.07.88-3.07-2-2.64L1466,145l.87-5a16.56,16.56,0,0,1,2.49-3.81l.3-11.72-4-.29h-3.22l-4.25-2.93-.88,1.46Z"/>

<path class="cls-1" d="M1651.46,99h3.23l1.46.59-.88,1.32,2.2-1.32h2l9.52,2.2L1671,103l-.59-1.17,5.42-.88,6.89,1.46,4.68-1.46h.59l2.49.58,4.25-.58.29,1.46q5.71-1.61,8.64-2.78a10,10,0,0,1,4.84,3.37l5.71-1.17c.68,3.9,1.66,6.59,2.93,8l-1.17,3.37-4.84,2-6,4.25-3.22,5.86-9.09,7-2.63.59-1.18,3.22-3.66.88q-1.6,5.56-5.42,7.62v1.75l-4.83,5.72-11.28,8.05-4.83,6.89h-3.67l-.58,1.76q-4,4.4-4.25,6.3l-5.86,2.78-2.78,4.25-2.64,1.17-8.2,10.69a47,47,0,0,0-5.79,5,9.1,9.1,0,0,0-1.68,3.52q-5.28,5.13-7.47,5.42a60,60,0,0,1-6.3,7.47l-1.18-.88v2.93l-10.25,6.59.59,8.2,3.95-.73,6.3,2.2,2.64-.59,5.42,2.64,2.78-1.46a11.08,11.08,0,0,1,4.1,5.41h2.79l4.1-1.9,4,1.32h5.42l4.25,2,3.22-2h2.64l4.83,1.46h2.2l.59,2.05h4.1v-1.46l2.78-.59,4.1,1.18,1.32-1.18v-1.46l6.3,1.46,3.22-.88h-2.63a13.93,13.93,0,0,0,4.1-3.36v1.46l1.32-4.1v-5.42a27.48,27.48,0,0,1,9.52-5.42l2.78-3.66,10.69-5.28.88,2.05v.59h1.91q3.81-3.81,5.71-4l3.22,6-1,1.61c-.3.39-.83,3.08-1.61,8.06l-2.79,2q-3.07,4-5.42,4.83l.74,1.18c-3.13,1.36-5.23,3-6.3,4.83a19.89,19.89,0,0,0-6.74,2.64l-1.47,4.24-2-1.46-2.78,3.52-2.64-1.47-3.22,3.37-1.9.59c-.59.19-2,1.36-4.4,3.51h-3.37l-2.63,1.32L1667,256.2l-6.3,3.37-4-1.17-3.52.58-1.76-1.46-6.29,1.46-.59-.58-4.83,1.17h-4.25l-1.76.88-6.88-1.47h-19.78a17.44,17.44,0,0,0-6,2.64l-3.66-2.64h-6.59c-3.32-.49-5.62-1.22-6.88-2.19l-4.25.73-3.23-1.9h-7.61l-5.28,3.36h-2.19l-2.05,1.47-6-5.71-.59-2.64a26.24,26.24,0,0,0,1.18-6q2.63-2.78,2.63-5.42v-1.46l1.61.58.59-6,4.83-4.83,12.89-5.42,8.06-4.84-1.17,1.61,3.81-1.61,1.61-2,1.17.88v-.88l5.71-4,8.06-8.94,3.37-2,.59-2.78.87,1.46,2.64-4.69,2.78-1.61.59-1.76,3.22-2.05.88-2.05h.59q1.6-2.49,7.62-7l1.17,1,2-2.2q2.93-6.89,8.49-9.52l1.76-4.25,4.84-1.17,2.63-2.79-.58-5.27,7.76-5.71a10.56,10.56,0,0,0,3.08-3.37h1.46l2-3.22v-1.61l7.47-7.48L1671,133l.88-2.79,1.17-2.05v-2.78l-3.22.73-2.2-6a12.4,12.4,0,0,0-3.81,2l-1-2-2,1.17h-18.31l-1.17,2-11.13-.59-1.17-.58h-3.67l-1.75.58h-.88l-2.64,2.64h-1.32l-.88,1.61H1616l-2.64.59v1.17h-3.08l2,2.93-.58,1.9,1.61,4.84-1.61,2.63-2,.88-2,3.37-.59-1.61a47.83,47.83,0,0,0-6,7.62l-8.49,2.64-3.22-1.76,2.05-4.25-.59-5.42.59-4.83,2-1.47,2.78.88,2-2.64-3.51-8.35q1.31-6.89,4.68-9.37l14.5-10.26h2.64V105l8.64-4.1h11.14l3.95.88-1.17-1.61h6.59Z"/>

<path class="cls-1" d="M1798.1,124.51h-.59l-1.17,7.62,1.17.88-2,5.42-.59-1v2.2q0,6.45-5.42,12.3h1.18v2.64H1790l.59,17.14-1.18,2,.59,2.78-2.2,10.7h.73a35.07,35.07,0,0,1-1.46,8.35l-1.32,3.95L1784,219a33.14,33.14,0,0,0-.58,3.37q0,2.64,2.34,2.64a11.48,11.48,0,0,0,6.15-2.2l9.52-6.44q4-4.85,5.72-4.84h.88a13.33,13.33,0,0,0,4.68-4q2.21-2.79,3.37-3.22,2.21-4,4-4a9.73,9.73,0,0,1,1.17.29q1,.3,5.42,1l1.17,4.1a16.54,16.54,0,0,1-2.34,7.69c-1.57,2.88-2.81,5.27-3.74,7.18s-3,3.44-6.22,4.61v1l-2-.59v2.05h-1.32c-.29,2.64-1.66,4.16-4.1,4.54v.88h-4v.59h-1.46l-4,2.64h-1.17l-2,2.78-6,.88a2.91,2.91,0,0,1-2.78,1.76l-7.47,5.42v1.17l-3.66-.59,1,1.47-4.83,1.17v.73h-2v2.05l-2.2,1.47h-.59v.58c-1.27,3.61-3.07,5.42-5.42,5.42l-2-.58a35.31,35.31,0,0,0-6-10.84,32.06,32.06,0,0,0,1.17-6.89l-1.17-6V233.2a52,52,0,0,1,.88-9.37l.88-3.81v-.73h-.3a.26.26,0,0,1-.29-.3q0-.28,1.39-4.68a38.69,38.69,0,0,0,1.39-11.43c0-1.17-.44-1.85-1.32-2l1.91-4V179.15l2.34-5.13c.78-1.56,1.56-4.63,2.35-9.23,1.26-.78,2-1.51,2.19-2.19l-1.17-1.76,1.17-2.93q-2.34-4.54-5.42-4.54h-6.88a3.65,3.65,0,0,0-1.17,2.64h-1q-.73,3.94-3.81,4.83a5.19,5.19,0,0,1-4.24,4.54l-2.64,4.25h-.59q-1,3.23-3.66,3.22c-2,0-3.54-1.41-4.76-4.25a32.9,32.9,0,0,1-1.83-4.68,2.21,2.21,0,0,1,.58-1.32q1.47-6.45,9.09-10.7v-1.17a24.09,24.09,0,0,1,6.59-4.83h-1.32q6.3-1.32,7.4-6.52t7.69-5.2l1.76.59,3.66-1.76h-2.2l3.37-2.2.88.59,2.64-3.23.73.59q1.75-4.24,8-4.25,1.47,0,1.47-1.17v-1.46h1.17l-.58-.59,4.83-3.37a8,8,0,0,1,7.47-4.1,9.28,9.28,0,0,1,5.64,1.76c1.61,1.17,2.42,2.34,2.42,3.51S1799.46,122.17,1798.1,124.51Zm21.24-85.69h-.88L1813,50.39l-.59-.59a3.49,3.49,0,0,1-1.46,2.79v.58a19.62,19.62,0,0,1-8.06,7.47l-1.17-.58v1.17a26.08,26.08,0,0,1-8.86-2.42,10.22,10.22,0,0,1-4.69-5.56q-1.55-3.89-3-8.13,2.19-3.07,3.66-3.66l1.17-4,4.83-2.64,2.64-5.71,4.83-2.64v.88l2.64,1.17a6.48,6.48,0,0,0,1.39-.95,13,13,0,0,1,1-.88,11.24,11.24,0,0,1,3.44-1.17,15.4,15.4,0,0,0,4.25-1.54l1.61-.88h1.17l2.2,3.37V31.2l.58,4.25Z"/>

<path class="cls-1" d="M1920.56,99h3.22l1.46.59-.87,1.32,2.19-1.32h2l9.52,2.2L1940,103l-.59-1.17,5.42-.88,6.89,1.46,4.69-1.46h.58l2.49.58,4.25-.58.29,1.46q5.71-1.61,8.65-2.78a10,10,0,0,1,4.83,3.37l5.71-1.17c.68,3.9,1.66,6.59,2.93,8l-1.17,3.37-4.83,2-6,4.25-3.22,5.86-9.08,7-2.64.59-1.17,3.22-3.67.88q-1.61,5.56-5.42,7.62v1.75l-4.83,5.72-11.28,8.05-4.83,6.89h-3.66l-.59,1.76c-2.64,2.93-4,5-4.25,6.3l-5.86,2.78-2.78,4.25-2.64,1.17-8.2,10.69a47.83,47.83,0,0,0-5.79,5,9.1,9.1,0,0,0-1.68,3.52q-5.28,5.13-7.47,5.42a59.16,59.16,0,0,1-6.3,7.47l-1.17-.88v2.93l-10.26,6.59.59,8.2,4-.73,6.3,2.2,2.64-.59,5.42,2.64,2.78-1.46a11,11,0,0,1,4.1,5.41H1896l4.1-1.9,4,1.32h5.42l4.25,2,3.22-2h2.64l4.84,1.46h2.19l.59,2.05h4.1v-1.46l2.78-.59,4.1,1.18,1.32-1.18v-1.46l6.3,1.46,3.22-.88h-2.63a13.93,13.93,0,0,0,4.1-3.36v1.46l1.32-4.1v-5.42a27.57,27.57,0,0,1,9.52-5.42l2.78-3.66,10.7-5.28.87,2.05v.59h1.91q3.81-3.81,5.71-4l3.22,6-1,1.61q-.43.58-1.61,8.06l-2.79,2c-2,2.64-3.85,4.25-5.42,4.83l.74,1.18c-3.13,1.36-5.23,3-6.3,4.83a20,20,0,0,0-6.74,2.64l-1.46,4.24-2.06-1.46L1957,250.2l-2.64-1.47-3.22,3.37-1.9.59c-.59.19-2,1.36-4.4,3.51h-3.37l-2.63,1.32-2.79-1.32-6.29,3.37-4-1.17-3.52.58-1.75-1.46-6.3,1.46-.59-.58-4.83,1.17h-4.25l-1.76.88L1896,259h-19.78a17.31,17.31,0,0,0-6,2.64L1866.5,259h-6.59c-3.32-.49-5.62-1.22-6.88-2.19l-4.25.73-3.22-1.9h-7.62l-5.27,3.36h-2.2l-2,1.47-6-5.71-.58-2.64a27,27,0,0,0,1.17-6c1.76-1.85,2.63-3.66,2.63-5.42v-1.46l1.62.58.58-6,4.84-4.83,12.89-5.42,8-4.84-1.17,1.61,3.81-1.61,1.61-2,1.17.88v-.88l5.72-4,8-8.94,3.37-2,.59-2.78.88,1.46,2.63-4.69,2.79-1.61.58-1.76,3.23-2.05.87-2.05h.59q1.61-2.49,7.62-7l1.17,1,2.05-2.2q2.92-6.89,8.5-9.52l1.75-4.25,4.84-1.17,2.63-2.79-.58-5.27,7.76-5.71a10.56,10.56,0,0,0,3.08-3.37h1.46l2.05-3.22v-1.61l7.47-7.48L1940,133l.88-2.79,1.17-2.05v-2.78l-3.22.73-2.2-6a12.4,12.4,0,0,0-3.81,2l-1-2-2,1.17h-18.32l-1.17,2-11.13-.59-1.17-.58h-3.66l-1.76.58h-.88l-2.64,2.64h-1.32l-.87,1.61h-1.76l-2.64.59v1.17h-3.08l2.06,2.93-.59,1.9,1.61,4.84-1.61,2.63-2,.88-2,3.37-.59-1.61a47.76,47.76,0,0,0-6,7.62l-8.5,2.64-3.22-1.76,2-4.25-.59-5.42.59-4.83,2-1.47,2.78.88,2.05-2.64-3.51-8.35q1.32-6.89,4.68-9.37l14.51-10.26h2.63V105l8.65-4.1h11.13l4,.88-1.17-1.61h6.59Z"/>

<path class="cls-1" d="M2137.06,107.81l3.66.59h.59l-.59,1.46h1.17l2.06,2,6.88.59h6.88l4,2.2h1.46l2.2,7.47-3.07,2.63v2.79l4.83,4.83-.59,13.48h-2.05l-.73,2.64h-.59v4.24l2.79.59,1.17,1.46-1.76,2.79v2l-3.66,1.76-2.64,2.19-7.61,4.1a41.77,41.77,0,0,1-5.28,4.84l-2.19,6-12.9,5.13-12.89-.29.59,3.22h-2.64l-.58.88-6.3,1.32-.59-2.2-2.19.88v1.32l-5.42,2.05-2.06,6,2.79,7.47V208l1.46,3.22q-2.92,8.64-4.25,9.08l.88,2.64-1.46.59,3.37,1.46v4.54l2.93,2.05q7.32-2.19,8.93-3.22l2.2,2,.59-.59a68.06,68.06,0,0,0,9.52-1.46l1-1.76h3.52l2.78-.29,3.52,1.76-.88-1.18h2.93l3.66-3.07,4.25-.29h-.88l4.1-1.76,1.17.88,2.2-2h2.93l2.78-2.79q3.22-.13,10.4-3.81V212.4l4.25-1.17,4.54-6.59,4.84.58a10.29,10.29,0,0,0,5.86,2.79l2.19,2.05-3.37,6.3.59,3.95-4.69,2.64-.58,1.46-7,.88-3.81,4-4.25.29-1.17,3.37-5.72-.59-1.75,4.11-4.54-.59-1.76,2q-5,1.91-5.13,2.2l-2.05-1.17-3.37,3.22h-4.83l-2.93,1.46H2133l-2.2,1.91a34.39,34.39,0,0,0-7.76,3.22l-2.05-1.46h-4.25l-1.76,1.46-1.61-.59-2,.59-.59-.59-1.46,3.37h-4l-3.22,1.76c-1.08.59-3.42,1.07-7,1.47l-1.47,1.46h-2.63l-4,.59-2.93,3.66-4-1.47-2,2.64-1.61-.44q-.6-.15-5.86-5.56l.58-3.52-.58-1.9.58-3.52-2.19-5.42.87-4.25-1.46-6.59,1.46-5.42-2.05-8.35-.58-.59.58-4.24,4.84-1.76v-2.93l-2.05-.73.58-3.81-1.32-2.2.74-3.51,2.05-1.18-.59-3.37.59-5.71,1.17-.58,2-6.89,4.83-8.64,4.25-1.61.59-4.69-.59-1.32.59-2.64,2.63-1.46,1.62-4.83h-3.67V152.2l1.47-2.2L2087,148l.59-2h.58v-4.84l4.84-.58,2.05-4.25,10.25-11.43h2.05a16.09,16.09,0,0,1,4.55-4.68l2.05.58c1.36-.48,3-2.1,4.83-4.83h1.46l2.79-1.76h1.17l2-3.07Zm-3.52,24.9-5.12,1.76-4-1.76a36.45,36.45,0,0,1-5.71,4.11,10.77,10.77,0,0,1-3,6.44q-2.57,2.64-3.59,2.64h-2.64l1.76,3.22q-1.62,2.94-4.25,9.08l-2.34-.58-.88,3.81.88,5.42,2.93,1.61q1.32.73,7.32,1.75l4.69-3.07,9.67-.88,5.12-7.47,6.89-5.71.88-10.84-2.35-3.52-.29-5.13h-3.37Z"/>

<path class="cls-1" d="M2295.26,203.47q-1.17,0-1.17,4.83c-1.37,1.56-2.66,3.13-3.88,4.69a13.3,13.3,0,0,1-3.59,3.37l-2.2-.59a6.88,6.88,0,0,0-2.63,4.25c-.2.39-.69.59-1.47.59q-.87,0-1.32-1.62-1.76,3.67-4.68,3.67v1.46H2273l-1.47-.88q-2.62,1.9-2.63,4.25h-2.2l.59-.88h-1.18v1.47l-2.05,2.63h-2.63v.59h-1.62v1l-2.63.59v.59l-1.17-.59-.59,1.17-1-1.17-6,3.22.73.59h-1.32a3.21,3.21,0,0,1-3.51,2.78,2.93,2.93,0,0,1-2.79,2.05l-.58.88q-3.37,0-6.08,3.52t-4.62,4l-1-1.46-.59,1.46,1.61.59H2228v.73q-2.64.59-6.89,4.69c-2.15-.59-3.56-1.47-4.25-2.64l-8.64-17.14a2.55,2.55,0,0,0,1.17-2.34,10.12,10.12,0,0,0-1.17-4.54h.59l-2.64-7.47h1.47L2206.2,220l.59-1a.78.78,0,0,0,.88-.87v-.88l1.17.58v-1.46l.58-2.05,3.08-1.32-.88-.59a19.07,19.07,0,0,0,2.34-8.49c.3-3.62.69-5.76,1.18-6.45l-1.47-2.64v-3.66l1.47-4.83.58.88a19.68,19.68,0,0,0,2.2-5.42,3.51,3.51,0,0,1-.29-1.76,5.78,5.78,0,0,1,.14-1.76l2.79-2.78-.88-3.22,2.05-2.64v-1l.88,1v-2.78l-.88-.88h.88l1.9-5.42V160l.88.59,1.17-8.65h.59l3.07-9.08-1,.59,4.83-12.89h-.58l4.83-6.59v-3.52l1.17-3.37c-.78-.19-1.66-1.07-2.63-2.64l4.1-6.88v-7l-2.64-1.76a6.59,6.59,0,0,1,1.17-2.64,12.5,12.5,0,0,0-1.17-3.07l-6.88-10.11-1.18-.59a6.75,6.75,0,0,0-4.24,1.47h-.88a5.72,5.72,0,0,1-5.42-3.66l1.46-4.84-.58-1.75,4-2.64-.58-.88a9.65,9.65,0,0,0,6.66-4.39,54,54,0,0,1,3.44-5.28,8.5,8.5,0,0,0,3.3-.58,4.63,4.63,0,0,0,2.12-1.69c.49-.73,1-1.49,1.47-2.27h2.2l2.63-4.1V50.1l2.05-1.76q1.9,0,2.79-2.64l-.88-1.61,1.46.73,2-1.31a5,5,0,0,1,2.86-3.15q2.11-1,5.93-3.15c.29-1.17,1.47-2.05,3.52-2.64V34l3.37-.58v-.88l10.69-6v-.58a4.07,4.07,0,0,1,3.66-2.2q4,0,4,7.76v3.08h-.59v2q0,6.89-5.42,9.67a5.08,5.08,0,0,1-2,3.37,36.69,36.69,0,0,0-4.9,5.27h.58q-2.34,1.47-2.85,6.3a37,37,0,0,1-2,8.79l-.59-.73.59,2.78h-.59l-.58.59,1.17,1.17a4.92,4.92,0,0,0-1.76,3.29c-.1,1.23-.29,1.84-.59,1.84h-.43l-2.64,3.36q2.64,1.77,2.64,3.81c0,.79-.59,1.27-1.76,1.47v1.61l-.88-.59v7.47H2262l-1.32,4.4.74,4.25-1.62,3.37V109h-1.17l.59,3.23-1.17-.59-2,12.89L2251.76,138l-1.17,5.42c-1.47,1.76-2.2,3.17-2.2,4.25a19.73,19.73,0,0,0,.73,4.24,64.85,64.85,0,0,0-6,20.95l-1.62.59-.58.88a11.85,11.85,0,0,1-1.47,4.54l-.58,13.18,1.46,4.54-.88,8.94,4.25,8.79c-1.76,0-2.88.68-3.37,2.05h-.88l2.64,2.63-.59,2.2h1.62l2.63,2.64,2.64-2.64,3.37-1.46a21.33,21.33,0,0,0,4.25-3.37h3.22v-1.17l.58.58c2.93-3,6-4.64,9.09-4.83l-.59-.59,4.69-1.46v-1.18a10.21,10.21,0,0,0,6.59-4.24q5.28-.89,7-4h1.17l4.1-2.93Z"/>

<path class="cls-1" d="M2409.52,1.61l2.2-1.61,3.22,2.2,2.78-.59,2.06,2.64L2424,3.08q3.08,0,4.69,3.22l5.42,10.25q0,8.06-4.69,8.06h-1.61l-6.59,7.62.59,1.46-1.47-.88q-1.47,3.22-6,3.52V37.5Q2411.14,33.41,2398,28L2396,29.44l-.87-1.46a27.25,27.25,0,0,0-4,7.47,3.15,3.15,0,0,0-1.46,2.34,4.55,4.55,0,0,0,.58,1.91,21.13,21.13,0,0,0-3.22,4.1v4.83a36.5,36.5,0,0,1-2.78,8.06h-.59a27.39,27.39,0,0,0-2,10.25c-1.17.39-1.76,1.52-1.76,3.37a5.12,5.12,0,0,0,.29,2,19.67,19.67,0,0,1-1.9,6h-.88a43.44,43.44,0,0,0-2.64,5.71l-.58-.88v1.47A47.61,47.61,0,0,0,2370,96.09l-1.76,8.94v6.88l.59,1.32a10.83,10.83,0,0,1-2.05,2.64l-.73-.59-1.47,3.23v6.29l-2.64,4.84v8.06l-1.17,5.42v6.29l-3.66,15.68-.59,10.84c-.78,0-1.17.29-1.17.88s.39.88,1.17,1.17l-.58,4.83a5.16,5.16,0,0,0,4.83,3.23l.59-2.06,5.42-7.47h.58V175.2a46.16,46.16,0,0,0,5.28-7.48q3.07-5.11,5.71-5.42l2.78-4.1,1.18.59a10.17,10.17,0,0,0,2-3.37l.58.59,1-3.23,1.17.59,1.17-2.93a5.36,5.36,0,0,1,1.91-2.34l3.8-3.37,8.65-4.25-.59-.59,12.89-9.08,6.3-3.22a12,12,0,0,1,4-2.2l4.83,2.78,4.69.59,1.61.88a3.35,3.35,0,0,1,1.17,1.76,12.14,12.14,0,0,1,.59,1.61v3.22l3.66,7.47-1,6.3,3.08,6,.58,7.61,2.06,9.52-4.69,5.42.58,2.64q8.05,4.55,8.06,12.89l-1.17,4.84,2.64,6.88-.59,6.89,1.17,9.37c-.39.49-.9,1.08-1.54,1.76l-1.1,1.17a29.1,29.1,0,0,0,6.89,4.54,11.5,11.5,0,0,1,3.37-3.22,23.18,23.18,0,0,0,4.69-4.25h2.78l.88-1.46,1.46-.59v-1.61l4-2.93a28.77,28.77,0,0,0,4.25-2.78l5-3.81a6.53,6.53,0,0,0,3.81-2.2,17.46,17.46,0,0,1,3.07-2.64l4.25-.29.59-2,7.76,2.34-.59,2.64.59,5.42q-4.54,3.38-5.42,7.62l-.59-.74-1.46,2.79-2.64,1.46-.58,1.76a62.64,62.64,0,0,1-8.79,1.61v1.17c-3.23,1.57-5.52,2.35-6.89,2.35l-.88,4.54-3.07,1.76a11.19,11.19,0,0,1-7.77,3.07q-3.22,5.87-6.59,6l-4.25,4.69-5.27.73v1.17q-1.62,0-8.79,2.64l-.59,1.46-1.46-.58q-.89,3.36-6.88,3.36-2.51,0-5.35-4.39t-2.86-5.27v-1.18q-1.17-10-1.17-13.76l.29-1.47-1.17-3.95v-7.48l-3.81-5.42.59-4.83-1.61-17.14,3.07-10.69-6.3-7.47q-3.36-3.81-3.36-10.84h-.59a7.2,7.2,0,0,0,1.17-3.08q0-3.81-5.27-4.39l-4.25,2h-2.78l-.59,2.63-.59-.87q-.43,6.73-5.71,7.47v1q-4.39,2.64-4.39,5.28l.29,1.9a3.27,3.27,0,0,1-.29,1.46l-2.2.59-2,4.83-2.05,1.47q-.3,4.55-5.42,8.06a10.25,10.25,0,0,1-4.84,6.88,25,25,0,0,1-6,9.67l-2.05,8.06,4.1,3.36-4.69,4.84h-1l-1.76,5.27v4.84l-1.47,2.19-1.17,3.23a7.56,7.56,0,0,1-2.05,2.49l-4.25,3.8-1.61-.87-1.17,3.66h-1.46a5.44,5.44,0,0,1-5.42,3.22l-.59,4.83h-2.64l-2.78,3.23-4.1-.59a20.31,20.31,0,0,1-2.79,3.37l-2.63-3.95a4.78,4.78,0,0,0,2.05-3.81,7.82,7.82,0,0,0-1.47-3.67,2,2,0,0,0,1.25-1.61q.23-1.17,1.39-5.86h-.59a7.86,7.86,0,0,0,1.18-4,11.11,11.11,0,0,0-.59-3.52h.88q.59-8.34,2.78-12.3a8,8,0,0,1-.88-3.08l.88-4.54v-2l2.05-6.59h.59v-1.47l2.2-9.66.58.87-.58-4.68,1.17-3.08,2.64-1.76-2.64-4.24,2.64-10.11v-2.79a2.46,2.46,0,0,0,1.46-2l-.59-2.78v-.59h1.32l-.73-8.05v-2l.73-1.61h-.73l.73-5.28a18.54,18.54,0,0,0,2.42-5.93c.53-2.29.81-3.54.81-3.74v-3.95l2.63-3.52c1.27-.29,1.91-.92,1.91-1.9q0-2.2-2.49-7.47l2.78-6.3V112.5l2-6,.59.74.88-5.42,1-3.08-.44-1.17q0-1.75,2.2-4.84H2355a2.8,2.8,0,0,1,.88-2l-.88-.58q2.05-3.07,2-4.25V84.67h.88c.39-2.44,1-4,1.76-4.84l2.19-.58V75.73a35.21,35.21,0,0,0,1.18-7.91V63a7.88,7.88,0,0,1,.87-3.52l1.47-.58V53.17l1.61-4.54a10.76,10.76,0,0,0,2.34-7.17V39.7l2.64-7.47a4.45,4.45,0,0,1,1.61-3.37h.59l3.22-9.67a37.41,37.41,0,0,1,4.25-5.86q7.91-1,10.84-9.08a5,5,0,0,0,4.1-2L2402.05,1l4.25.58L2408.94,0Z"/>

<path class="cls-1" d="M2573.29,107.81l3.66.59h.59l-.59,1.46h1.18l2,2,6.88.59H2594l4,2.2h1.47l2.19,7.47-3.07,2.63v2.79l4.83,4.83-.59,13.48h-2.05l-.73,2.64h-.58v4.24l2.78.59,1.17,1.46-1.76,2.79v2l-3.66,1.76-2.64,2.19-7.61,4.1a41.77,41.77,0,0,1-5.28,4.84l-2.19,6-12.89,5.13-12.9-.29.59,3.22h-2.64l-.58.88-6.3,1.32-.59-2.2-2.19.88v1.32l-5.42,2.05-2.05,6,2.78,7.47V208l1.46,3.22q-2.92,8.64-4.24,9.08l.87,2.64-1.46.59L2538,225v4.54l2.93,2.05q7.32-2.19,8.93-3.22l2.2,2,.59-.59a68.06,68.06,0,0,0,9.52-1.46l1-1.76h3.52l2.78-.29,3.52,1.76-.88-1.18h2.93l3.66-3.07,4.25-.29h-.88l4.1-1.76,1.17.88,2.2-2h2.93l2.78-2.79q3.22-.13,10.4-3.81V212.4l4.25-1.17,4.54-6.59,4.84.58a10.29,10.29,0,0,0,5.86,2.79l2.19,2.05-3.37,6.3.59,3.95-4.69,2.64-.58,1.46-7,.88-3.81,4-4.25.29-1.17,3.37-5.72-.59-1.75,4.11-4.54-.59-1.76,2q-5,1.91-5.13,2.2l-2.05-1.17-3.37,3.22h-4.83L2571,243.6h-1.76l-2.2,1.91a34.58,34.58,0,0,0-7.76,3.22l-2.05-1.46h-4.25l-1.76,1.46-1.61-.59-2,.59-.59-.59-1.46,3.37h-4l-3.22,1.76c-1.07.59-3.42,1.07-7,1.47l-1.46,1.46h-2.64l-4,.59-2.93,3.66-4-1.47-2,2.64-1.61-.44q-.6-.15-5.86-5.56l.58-3.52-.58-1.9.58-3.52-2.19-5.42.87-4.25-1.46-6.59,1.46-5.42-2.05-8.35-.58-.59.58-4.24,4.84-1.76v-2.93l-2.05-.73.58-3.81-1.32-2.2.74-3.51,2.05-1.18-.59-3.37.59-5.71L2510,186l2-6.89,4.83-8.64,4.25-1.61.59-4.69-.59-1.32.59-2.64,2.64-1.46L2526,154h-3.67V152.2l1.47-2.2-.59-2.05.59-2h.59v-4.84l4.83-.58,2.05-4.25,10.25-11.43h2.05a16.09,16.09,0,0,1,4.55-4.68l2.05.58c1.36-.48,3-2.1,4.83-4.83h1.47l2.78-1.76h1.17l2-3.07Zm-3.51,24.9-5.13,1.76-4-1.76a36,36,0,0,1-5.71,4.11,10.77,10.77,0,0,1-3,6.44q-2.57,2.64-3.59,2.64h-2.64l1.76,3.22q-1.62,2.94-4.25,9.08l-2.34-.58-.88,3.81.88,5.42,2.93,1.61q1.32.73,7.32,1.75l4.69-3.07,9.67-.88,5.12-7.47,6.89-5.71.88-10.84-2.35-3.52-.29-5.13h-3.37Z"/>

<path class="cls-1" d="M2690.33,106.49l5.71.74,8.21-1v10.26c-1.66,1.27-2.49,2.58-2.49,4-2.74,1.56-4.1,3.66-4.1,6.3a8.8,8.8,0,0,0,.29,2.64l-1,5.71-11,19.77-1.61,9.67-2.64,3.52.29,7.47-4.25,19.92a1.68,1.68,0,0,0-.58,1.17,2.47,2.47,0,0,0,1.46,2l6.74-8.35,3.81-2.05,3.08-7,5.71-4.1,6.88-10.55q2.79-4.25,12-7.76,0-2.49,4.39-7.18a18.84,18.84,0,0,0,3.66-2.64c2-1.65,4-3.07,5.72-4.24l-.59-1q10.54-5.72,10.4-7.76,7.47-3.23,9.67-7.47,10.55-9.68,15.23-10.26a15.35,15.35,0,0,0,3.88-1.39,18.38,18.38,0,0,1,4.62-1.54,9.72,9.72,0,0,1,8.05-4c2,0,2.93,1.42,2.93,4.25l.44,9.52-1.9,5.42-.29,6.88-3.23,8.21-3.37,20.65a2.72,2.72,0,0,1-2.05,2.05l1.76,6.59-2.05,3.66,3.52,2.06-1.18,1.9a25.52,25.52,0,0,0-2.92,4.69,18.87,18.87,0,0,1,2.34,2.78l-.88,11.72h.59q1.45,15.38,3.37,15.53l6.29-2.35a29.72,29.72,0,0,1,11.28-10.25,7.09,7.09,0,0,0,4-1.76c1.56,0,2.54-.49,2.93-1.46a17.5,17.5,0,0,1,4.69-2.13,55.5,55.5,0,0,0,8.64-3.88l5,1.17a7.18,7.18,0,0,1,2.2,3.22q-4,4.84-8.57,11.58t-6.52,6.74h-4.1l-3.08,4.54-7.47,1.46-6.59,8.5-5.42,1.46-20.66,14.36-6.3,6.3-.87-5.42-5.42.29-1.91-8.94-2.93-2.34-.29-10.25-1.47-6.3q0-7.92,2.93-8.35v-.73l1.76-6.89-.29-9.52,3.37-6.59-2.35-2.79,4.69-5.42.29-11.28,2.49-5.42-4.24-5.71,1.17-.29v-4.25l2.78-1.46v-.88l-.29-2.49v-.59c-.88-1-3.08-1.76-6.59-2.34l-7,5.71L2731.2,157l-14.35,16.11-2.2,3.37q-6.45,6.45-6.3,7.18l-2.93,2.05a25.48,25.48,0,0,0-.59,4l-5.71,6.59-6,8.64-10.26,16.26h-.58l-1.76,4.1-2.79,9.67a126.76,126.76,0,0,0-11,10.25l-4.84,1.18-3.07,5.12-2.05.3-4-.88a18.67,18.67,0,0,0-6.88,1.46l3.07-6,1.18-5.42a201.64,201.64,0,0,0,8.64-25.2h.58v-4.25l3.08-8.64,1.17-7.47h.59l-1.47-4.83,1.47-9.09,1-3.22c.3-1,1.66-3.07,4.1-6.3l-.87-3.95,1.75-2.64a37.16,37.16,0,0,1-2.63-12.89l.88-4.83-.59-.88V145a15.87,15.87,0,0,0-9.08-2.78,7.9,7.9,0,0,0-3.44.88q-1.84.87-5.5,7.91a111.36,111.36,0,0,0-11.13,4.1l-2.64-5.72a4.73,4.73,0,0,1,1.54-3.8,4.42,4.42,0,0,1,2.56-1.32h2.49l2.35-3.23,4.54-1.17-1.76-1.17v-1.61l5.57.88,6-6.59,8.5-5,1.46-1.91h.88l-1.46-2.05a4.54,4.54,0,0,0,1.76.59q1.17,0,1.17-2.64,5.13-6.15,10.84-6.88a7,7,0,0,1,6.59-4.84v-1.46Z"/>

<path class="cls-1" d="M2899.22,124.51h-.59l-1.17,7.62,1.17.88-2.05,5.42-.58-1v2.2q0,6.45-5.42,12.3h1.17v2.64h-.59l.59,17.14-1.17,2,.58,2.78-2.2,10.7h.74a34.69,34.69,0,0,1-1.47,8.35l-1.32,3.95L2885.16,219a31.63,31.63,0,0,0-.59,3.37q0,2.64,2.34,2.64a11.51,11.51,0,0,0,6.16-2.2l9.52-6.44c2.63-3.23,4.54-4.84,5.71-4.84h.88a13.44,13.44,0,0,0,4.69-4q2.19-2.79,3.37-3.22,2.19-4,4-4a9.25,9.25,0,0,1,1.17.29q1,.3,5.42,1l1.18,4.1a16.57,16.57,0,0,1-2.35,7.69c-1.56,2.88-2.81,5.27-3.73,7.18s-3,3.44-6.23,4.61v1l-2.05-.59v2.05h-1.32c-.29,2.64-1.66,4.16-4.1,4.54v.88h-4v.59h-1.46l-4,2.64h-1.17l-2.05,2.78-6,.88a2.94,2.94,0,0,1-2.79,1.76l-7.47,5.42v1.17l-3.66-.59,1,1.47-4.84,1.17v.73h-2v2.05l-2.2,1.47H2868v.58q-1.91,5.42-5.42,5.42l-2-.58a35.35,35.35,0,0,0-6-10.84,32.06,32.06,0,0,0,1.17-6.89l-1.17-6V233.2a52,52,0,0,1,.88-9.37l.88-3.81v-.73H2856a.27.27,0,0,1-.3-.3q0-.28,1.39-4.68a38.65,38.65,0,0,0,1.4-11.43c0-1.17-.44-1.85-1.32-2l1.9-4V179.15l2.35-5.13c.78-1.56,1.56-4.63,2.34-9.23a4.65,4.65,0,0,0,2.2-2.19l-1.18-1.76,1.18-2.93c-1.57-3-3.37-4.54-5.42-4.54h-6.89a3.65,3.65,0,0,0-1.17,2.64h-1c-.49,2.63-1.75,4.24-3.8,4.83a5.2,5.2,0,0,1-4.25,4.54l-2.64,4.25h-.58q-1,3.23-3.67,3.22c-1.95,0-3.54-1.41-4.76-4.25a32.9,32.9,0,0,1-1.83-4.68,2.23,2.23,0,0,1,.59-1.32q1.45-6.45,9.08-10.7v-1.17a24.24,24.24,0,0,1,6.59-4.83h-1.32q6.3-1.32,7.4-6.52t7.69-5.2l1.76.59,3.66-1.76h-2.2l3.37-2.2.88.59,2.64-3.23.73.59q1.75-4.24,8.06-4.25c1,0,1.46-.39,1.46-1.17v-1.46h1.17l-.58-.59,4.83-3.37a8,8,0,0,1,7.47-4.1,9.28,9.28,0,0,1,5.64,1.76c1.61,1.17,2.42,2.34,2.42,3.51S2900.58,122.17,2899.22,124.51Zm21.24-85.69h-.88l-5.42,11.57-.59-.59a3.49,3.49,0,0,1-1.46,2.79v.58a19.56,19.56,0,0,1-8.06,7.47l-1.17-.58v1.17a26.15,26.15,0,0,1-8.86-2.42,10.3,10.3,0,0,1-4.69-5.56c-1-2.59-2-5.3-3-8.13q2.19-3.07,3.66-3.66l1.17-4,4.84-2.64,2.63-5.71,4.84-2.64v.88l2.63,1.17a6.61,6.61,0,0,0,1.4-.95,12.59,12.59,0,0,1,1-.88,11.35,11.35,0,0,1,3.44-1.17,15.28,15.28,0,0,0,4.25-1.54l1.61-.88H2919l2.2,3.37V31.2l.59,4.25Z"/>
</g>
</g>
</svg>